<svg width="18" height="22" viewBox="0 0 18 22" fill="none" xmlns="http://www.w3.org/2000/svg">
<path d="M16.5 22H7.5C7.10218 22 6.72064 21.8344 6.43934 21.5397C6.15804 21.245 6 20.8453 6 20.4286V18.0714H7.5V20.4286H16.5V1.57143H7.5V3.92857H6V1.57143C6 1.15466 6.15804 0.754961 6.43934 0.460261C6.72064 0.165561 7.10218 0 7.5 0H16.5C16.8978 0 17.2794 0.165561 17.5607 0.460261C17.842 0.754961 18 1.15466 18 1.57143V20.4286C18 20.8453 17.842 21.245 17.5607 21.5397C17.2794 21.8344 16.8978 22 16.5 22Z"/>
<path d="M8.23667 14.9425L11.0211 12.25H0V10.75H11.0211L8.23667 8.0575L9.33333 7L14 11.5L9.33333 16L8.23667 14.9425Z" />
</svg>
