<svg width="23" height="27" viewBox="0 0 23 27" fill="none" xmlns="http://www.w3.org/2000/svg">
<path d="M9.12109 11.0359C8.37195 11.0359 7.78052 11.6936 7.78052 12.4959C7.78052 13.2983 8.38509 13.956 9.12109 13.956C9.87023 13.956 10.4617 13.2983 10.4617 12.4959C10.4748 11.6936 9.87023 11.0359 9.12109 11.0359ZM13.9182 11.0359C13.1691 11.0359 12.5777 11.6936 12.5777 12.4959C12.5777 13.2983 13.1822 13.956 13.9182 13.956C14.6674 13.956 15.2588 13.2983 15.2588 12.4959C15.2588 11.6936 14.6674 11.0359 13.9182 11.0359Z" fill="#26BE96"/>
<path d="M20.3057 0H2.69429C1.20914 0 0 1.21013 0 2.70964V20.4933C0 21.9928 1.20914 23.2029 2.69429 23.2029H17.5983L16.9017 20.7695L18.584 22.3348L20.1743 23.808L23 26.3072V2.70964C23 1.21013 21.7909 0 20.3057 0ZM15.2326 17.1786C15.2326 17.1786 14.7594 16.613 14.3651 16.1132C16.0869 15.6265 16.744 14.5479 16.744 14.5479C16.2051 14.903 15.6926 15.1529 15.2326 15.3239C14.5754 15.6002 13.9446 15.7843 13.3269 15.8895C12.0651 16.1263 10.9086 16.0605 9.92286 15.8764C9.17371 15.7317 8.52971 15.5212 7.99086 15.3108C7.68857 15.1924 7.36 15.0477 7.03143 14.8636C6.992 14.8373 6.95257 14.8241 6.91314 14.7978C6.88686 14.7846 6.87371 14.7715 6.86057 14.7583C6.624 14.6268 6.49257 14.5347 6.49257 14.5347C6.49257 14.5347 7.12343 15.587 8.79257 16.0868C8.39829 16.5867 7.912 17.1786 7.912 17.1786C5.00743 17.0865 3.90343 15.1792 3.90343 15.1792C3.90343 10.9438 5.796 7.5107 5.796 7.5107C7.68857 6.09011 9.48914 6.12958 9.48914 6.12958L9.62057 6.28742C7.25486 6.97141 6.164 8.01054 6.164 8.01054C6.164 8.01054 6.45314 7.8527 6.93943 7.62909C8.34571 7.01087 9.46286 6.83987 9.92286 6.80041C10.0017 6.78726 10.0674 6.7741 10.1463 6.7741C10.948 6.66887 11.8549 6.64257 12.8011 6.7478C14.0497 6.89248 15.3903 7.26079 16.7571 8.01054C16.7571 8.01054 15.7189 7.02402 13.4846 6.34003L13.6686 6.12958C13.6686 6.12958 15.4691 6.09011 17.3617 7.5107C17.3617 7.5107 19.2543 10.9438 19.2543 15.1792C19.2543 15.1792 18.1371 17.0865 15.2326 17.1786Z" fill="#26BE96"/>
</svg>
