<svg width="54" height="51" viewBox="0 0 54 51" fill="none" xmlns="http://www.w3.org/2000/svg">
<path fill-rule="evenodd" clip-rule="evenodd" d="M25.232 0.0221368C25.034 0.0409613 24.447 0.10097 23.9274 0.155676C13.8676 1.21383 4.94047 7.2838 1.45238 15.4376C0.581236 17.4741 -0.0105631 20.0843 0.000142905 21.8427L0.00401146 22.4636L0.211294 21.9775C0.89342 20.3782 2.04004 18.4494 3.31109 16.7632C4.7743 14.8223 7.70028 12.1831 9.6324 11.0616C13.3048 8.93002 16.7671 7.90996 20.7786 7.77775C25.7249 7.61469 30.4266 8.8663 34.9513 11.5507C35.9808 12.1615 37.614 13.3023 38.5379 14.056L38.9787 14.4156L39.1214 14.1974C39.4162 13.7473 40.2515 12.9578 40.8969 12.5195C42.7224 11.2798 44.9445 10.6662 47.6111 10.6655C48.3409 10.6653 48.9381 10.6409 48.9381 10.6114C48.9381 10.5819 48.4034 9.97898 47.7498 9.2716C45.194 6.50564 42.3627 4.39057 39.0868 2.80021C36.1223 1.36098 33.4156 0.561154 30.247 0.188199C29.1378 0.0576648 25.9657 -0.0474167 25.232 0.0221368ZM23.7248 26.0244L20.7782 27.7663L32.1723 27.7887L43.5665 27.8112L43.5052 28.8493C43.1278 35.2386 40.5328 40.3819 35.983 43.7584C31.5714 47.0323 25.7387 48.714 18.1246 48.9074L15.8754 48.9645L16.8201 49.2665C19.1656 50.0164 22.1591 50.6321 24.7371 50.8948C26.1377 51.0375 29.9252 51.0344 31.2988 50.8892C36.8433 50.3036 41.7449 48.3535 45.5644 45.2138C46.3375 44.5783 48.0394 42.8936 48.6374 42.1719C50.2711 40.2003 51.7149 37.5346 52.6236 34.8124C53.5351 32.0816 53.8821 29.9444 53.9509 26.6395L54 24.2754L40.3357 24.279L26.6714 24.2826L23.7248 26.0244Z" fill="white"/>
<path fill-rule="evenodd" clip-rule="evenodd" d="M25.232 0.0221368C25.034 0.0409613 24.447 0.10097 23.9274 0.155676C13.8676 1.21383 4.94047 7.2838 1.45238 15.4376C0.581236 17.4741 -0.0105631 20.0843 0.000142905 21.8427L0.00401146 22.4636L0.211294 21.9775C0.89342 20.3782 2.04004 18.4494 3.31109 16.7632C4.7743 14.8223 7.70028 12.1831 9.6324 11.0616C13.3048 8.93002 16.7671 7.90996 20.7786 7.77775C25.7249 7.61469 30.4266 8.8663 34.9513 11.5507C35.9808 12.1615 37.614 13.3023 38.5379 14.056L38.9787 14.4156L39.1214 14.1974C39.4162 13.7473 40.2515 12.9578 40.8969 12.5195C42.7224 11.2798 44.9445 10.6662 47.6111 10.6655C48.3409 10.6653 48.9381 10.6409 48.9381 10.6114C48.9381 10.5819 48.4034 9.97898 47.7498 9.2716C45.194 6.50564 42.3627 4.39057 39.0868 2.80021C36.1223 1.36098 33.4156 0.561154 30.247 0.188199C29.1378 0.0576648 25.9657 -0.0474167 25.232 0.0221368ZM23.7248 26.0244L20.7782 27.7663L32.1723 27.7887L43.5665 27.8112L43.5052 28.8493C43.1278 35.2386 40.5328 40.3819 35.983 43.7584C31.5714 47.0323 25.7387 48.714 18.1246 48.9074L15.8754 48.9645L16.8201 49.2665C19.1656 50.0164 22.1591 50.6321 24.7371 50.8948C26.1377 51.0375 29.9252 51.0344 31.2988 50.8892C36.8433 50.3036 41.7449 48.3535 45.5644 45.2138C46.3375 44.5783 48.0394 42.8936 48.6374 42.1719C50.2711 40.2003 51.7149 37.5346 52.6236 34.8124C53.5351 32.0816 53.8821 29.9444 53.9509 26.6395L54 24.2754L40.3357 24.279L26.6714 24.2826L23.7248 26.0244Z" fill="white"/>
</svg>
