<svg width="24" height="24" viewBox="0 0 24 24" fill="none" xmlns="http://www.w3.org/2000/svg">
<path d="M11.8086 4.91479C10.577 4.91636 9.39629 5.40629 8.52544 6.27715C7.65458 7.148 7.16465 8.32869 7.16309 9.56026H9.52479C9.52479 8.3003 10.5498 7.2765 11.8086 7.2765C13.0673 7.2765 14.0923 8.3003 14.0923 9.56026C14.0923 10.2664 13.5243 10.7789 12.6564 11.4803C12.3729 11.7024 12.1005 11.9385 11.8404 12.1877C10.6619 13.365 10.6277 14.6155 10.6277 14.7548V15.5425H12.9894L12.9882 14.795C12.9894 14.7761 13.0272 14.3392 13.509 13.8586C13.6861 13.6814 13.9093 13.5043 14.1407 13.3177C15.0606 12.5726 16.4528 11.4473 16.4528 9.56026C16.4519 8.3287 15.9623 7.14783 15.0916 6.27687C14.2209 5.40592 13.0401 4.91605 11.8086 4.91479ZM10.6277 16.7233H12.9894V19.085H10.6277V16.7233Z" fill="#26BE96"/>
<path d="M11.8085 0.191406C5.2973 0.191406 0 5.4887 0 11.9999C0 18.5111 5.2973 23.8084 11.8085 23.8084C18.3197 23.8084 23.617 18.5111 23.617 11.9999C23.617 5.4887 18.3197 0.191406 11.8085 0.191406ZM11.8085 21.4467C6.59978 21.4467 2.3617 17.2087 2.3617 11.9999C2.3617 6.79118 6.59978 2.55311 11.8085 2.55311C17.0172 2.55311 21.2553 6.79118 21.2553 11.9999C21.2553 17.2087 17.0172 21.4467 11.8085 21.4467Z" fill="#26BE96"/>
</svg>
