<svg width="23" height="24" viewBox="0 0 23 24" fill="none" xmlns="http://www.w3.org/2000/svg">
<path d="M0 11.4039C0 6.20862 0 3.61098 1.61396 1.99702C3.22793 0.383057 5.82556 0.383057 11.0208 0.383057H11.9792C17.1744 0.383057 19.7721 0.383057 21.386 1.99702C23 3.61098 23 6.20862 23 11.4039V12.3622C23 17.5575 23 20.1551 21.386 21.7691C19.7721 23.3831 17.1744 23.3831 11.9792 23.3831H11.0208C5.82556 23.3831 3.22793 23.3831 1.61396 21.7691C0 20.1551 0 17.5575 0 12.3622L0 11.4039Z" fill="#26BE96"/>
<path fill-rule="evenodd" clip-rule="evenodd" d="M6.22966 7.57056H4.55219C4.07291 7.57056 3.97705 7.79615 3.97705 8.04484C3.97705 8.48907 4.54575 10.6922 6.62502 13.6061C8.0112 15.596 9.96419 16.6747 11.7414 16.6747C12.8077 16.6747 12.9396 16.4351 12.9396 16.0225V14.5185C12.9396 14.0393 13.0406 13.9437 13.3782 13.9437C13.627 13.9437 14.0535 14.0681 15.0488 15.0275C16.1862 16.1646 16.3737 16.6747 17.0134 16.6747H18.6909C19.1702 16.6747 19.4098 16.4351 19.2716 15.9623C19.1203 15.4911 18.5773 14.8074 17.8567 13.997C17.4657 13.535 16.8792 13.0376 16.7015 12.7888C16.4527 12.469 16.5238 12.3268 16.7015 12.0426C16.7015 12.0426 18.7453 9.16422 18.9585 8.18705C19.0651 7.83165 18.9585 7.57056 18.4512 7.57056H16.7738C16.3473 7.57056 16.1506 7.79615 16.044 8.04484C16.044 8.04484 15.1909 10.1237 13.9825 11.474C13.5915 11.8648 13.4138 11.9892 13.2005 11.9892C13.0939 11.9892 12.9395 11.8648 12.9395 11.5095V8.18705C12.9395 7.76059 12.8158 7.57056 12.4603 7.57056H9.82423C9.55771 7.57056 9.39738 7.76845 9.39738 7.95605C9.39738 8.36027 10.0016 8.45352 10.0639 9.59063V12.0603C10.0639 12.6018 9.96606 12.7 9.75283 12.7C9.18415 12.7 7.80085 10.6119 6.98042 8.22256C6.81966 7.75815 6.65837 7.57056 6.22966 7.57056V7.57056Z" fill="#212435"/>
</svg>
